<?xml version="1.0" encoding="UTF-8" standalone="no"?>
<!DOCTYPE svg PUBLIC "-//W3C//DTD SVG 1.1//EN" "http://www.w3.org/Graphics/SVG/1.1/DTD/svg11.dtd">
<svg width="100%" height="100%" viewBox="0 0 348 348" version="1.1" xmlns="http://www.w3.org/2000/svg" xmlns:xlink="http://www.w3.org/1999/xlink" xml:space="preserve" xmlns:serif="http://www.serif.com/" style="fill-rule:evenodd;clip-rule:evenodd;stroke-linejoin:round;stroke-miterlimit:2;">
    <g transform="matrix(1,0,0,1,-17,-920)">
        <g id="Background">
        </g>
        <g id="Artboard4" transform="matrix(1,0,0,1,-0.687178,-0.994608)">
            <rect x="17.687" y="920.995" width="347.925" height="347.925" style="fill:none;"/>
            <clipPath id="_clip1">
                <rect x="17.687" y="920.995" width="347.925" height="347.925"/>
            </clipPath>
            <g clip-path="url(#_clip1)">
                <g transform="matrix(0.389439,0,0,1,-11.638802,-7.882333)">
                    <g transform="matrix(2.567797,0,0,1,0.49553,6.421884)">
                        <path d="M377.745,1010.431L377.745,1184.393C377.745,1232.399 338.77,1271.374 290.764,1271.374L116.801,1271.374C68.795,1271.374 29.82,1232.399 29.82,1184.393L29.82,1010.431C29.82,962.425 68.795,923.45 116.801,923.45L290.764,923.45C338.77,923.45 377.745,962.425 377.745,1010.431Z" style="fill:rgb(235,235,235);"/>
                    </g>
                    <g transform="matrix(6.646417,0,0,2.588374,-2537.217841,236.274146)">
                        <path d="M461.719,272.337L464.288,281.885C466.091,282.011 467.887,282.229 469.668,282.538L474.446,273.883C475.209,274.055 475.968,274.243 476.723,274.444L476.932,284.329C478.653,284.883 480.344,285.525 482,286.25L488.711,278.99C489.41,279.34 490.102,279.704 490.787,280.08L488.625,289.727C490.163,290.678 491.651,291.705 493.085,292.806L501.339,287.363C501.933,287.87 502.519,288.389 503.094,288.918L498.685,297.767C499.951,299.058 501.151,300.412 502.279,301.824L511.596,298.514C512.052,299.149 512.496,299.793 512.928,300.444L506.529,307.982C507.449,309.538 508.29,311.139 509.048,312.781L518.886,311.796C519.177,312.522 519.454,313.253 519.717,313.989L511.701,319.776C512.222,321.507 512.655,323.264 512.998,325.039L522.786,326.437C522.894,327.211 522.989,327.988 523.068,328.765L513.9,332.466C513.992,334.271 513.992,336.08 513.9,337.886L523.068,341.586C522.989,342.364 522.894,343.14 522.786,343.914L512.998,345.313C512.655,347.088 512.222,348.844 511.701,350.575L519.717,356.362C519.454,357.098 519.177,357.829 518.886,358.555L509.048,357.571C508.29,359.212 507.449,360.814 506.529,362.37L512.928,369.907C512.496,370.558 512.052,371.202 511.596,371.837L502.279,368.527C501.151,369.939 499.951,371.293 498.685,372.584L503.094,381.433C502.519,381.963 501.933,382.481 501.339,382.988L493.085,377.545C491.651,378.646 490.163,379.674 488.625,380.624L490.787,390.271C490.102,390.648 489.41,391.011 488.711,391.361L482,384.101C480.344,384.827 478.653,385.468 476.932,386.023L476.723,395.907C475.968,396.109 475.209,396.296 474.446,396.469L469.668,387.813C467.887,388.122 466.091,388.34 464.288,388.466L461.719,398.014C460.938,398.029 460.156,398.029 459.374,398.014L456.806,388.466C455.003,388.34 453.207,388.122 451.426,387.813L446.647,396.469C445.885,396.296 445.125,396.109 444.37,395.907L444.161,386.023C442.441,385.468 440.749,384.827 439.094,384.101L432.382,391.361C431.684,391.011 430.991,390.648 430.306,390.271L432.469,380.624C430.931,379.674 429.442,378.646 428.008,377.545L419.755,382.988C419.16,382.481 418.575,381.963 417.999,381.433L422.408,372.584C421.142,371.293 419.943,369.939 418.814,368.527L409.498,371.837C409.042,371.202 408.598,370.558 408.166,369.907L414.564,362.37C413.644,360.814 412.803,359.212 412.045,357.571L402.208,358.555C401.917,357.829 401.639,357.098 401.376,356.362L409.392,350.575C408.871,348.844 408.438,347.088 408.095,345.313L398.308,343.914C398.199,343.14 398.105,342.364 398.025,341.586L407.194,337.886C407.102,336.08 407.102,334.271 407.194,332.466L398.025,328.765C398.105,327.988 398.199,327.211 398.308,326.437L408.095,325.039C408.438,323.264 408.871,321.507 409.392,319.776L401.376,313.989C401.639,313.253 401.917,312.522 402.208,311.796L412.045,312.781C412.803,311.139 413.644,309.538 414.564,307.982L408.166,300.444C408.598,299.793 409.042,299.149 409.498,298.514L418.814,301.824C419.943,300.412 421.142,299.058 422.408,297.767L417.999,288.918C418.575,288.389 419.16,287.87 419.755,287.363L428.008,292.806C429.442,291.705 430.931,290.678 432.469,289.727L430.306,280.08C430.991,279.704 431.684,279.34 432.382,278.99L439.094,286.25C440.749,285.525 442.441,284.883 444.161,284.329L444.37,274.444C445.125,274.243 445.885,274.055 446.647,273.883L451.426,282.538C453.207,282.229 455.003,282.011 456.806,281.885L459.374,272.337C460.156,272.323 460.938,272.323 461.719,272.337ZM460.547,291.181C484.828,291.181 504.541,310.894 504.541,335.176C504.541,359.457 484.828,379.17 460.547,379.17C436.265,379.17 416.552,359.457 416.552,335.176C416.552,310.894 436.265,291.181 460.547,291.181Z" style="fill:rgb(200,90,54);"/>
                    </g>
                    <g transform="matrix(2.324714,0,0,0.943617,307.318811,1034.571806)">
                        <path d="M143.502,147.965C113.501,147.976 83.501,147.986 53.5,147.996C38.202,148 4.324,161.886 3.213,158.645C2.17,155.6 5.903,155.696 5.95,118.501C6.073,21.43 5,20.679 9.779,13.689C18.401,1.077 27.132,2.76 61.5,2.76C118.611,2.76 162.255,2.914 163.442,2.987C172.522,3.549 178.519,12.316 179.383,13.58C183.843,20.101 183.164,20.732 183.129,84.5C183.103,131.088 184.366,132.504 176.06,141.036C167.676,149.646 154.365,147.927 143.502,147.965Z" style="fill:rgb(200,90,54);fill-opacity:1;"/>
                    </g>
                    <g transform="matrix(8.657268,0,0,5.150087,-2911.579066,-2945.681889)">
                        <g transform="matrix(31.819057,0,0,31.819057,398.292455,796.937388)">
                        </g>
                        <text x="379.711px" y="796.937px" style="font-family:'Arial-BoldMT', 'Arial', sans-serif;font-weight:700;font-size:31.819px;fill:white;">&gt;</text>
                    </g>
                    <g transform="matrix(5.170947,0,0,3.083338,-1488.167536,-1324.465823)">
                        <g transform="matrix(0.654645,0,0,1,135.853119,0)">
                            <g transform="matrix(69.92856,0,0,69.92856,432.26305,788.027717)">
                            </g>
                            <text x="393.372px" y="788.028px" style="font-family:'Arial-BoldMT', 'Arial', sans-serif;font-weight:700;font-size:69.929px;fill:white;">_</text>
                        </g>
                    </g>
                </g>
            </g>
        </g>
    </g>
</svg>
